<svg width="512" height="512" viewBox="0 0 512 512" fill="none" xmlns="http://www.w3.org/2000/svg">
  <rect width="512" height="512" rx="112" fill="#101114"/>
  <rect x="54" y="54" width="404" height="404" rx="82" fill="url(#panel)"/>
  <path d="M134 176C134 158.327 148.327 144 166 144H346C363.673 144 378 158.327 378 176V336C378 353.673 363.673 368 346 368H166C148.327 368 134 353.673 134 336V176Z" fill="#F8F3E8"/>
  <path d="M178 202H334" stroke="#2B2F36" stroke-width="18" stroke-linecap="round"/>
  <path d="M178 252H298" stroke="#2B2F36" stroke-width="18" stroke-linecap="round"/>
  <path d="M178 302H252" stroke="#2B2F36" stroke-width="18" stroke-linecap="round"/>
  <path d="M318 314L372 260" stroke="#26C485" stroke-width="28" stroke-linecap="round" stroke-linejoin="round"/>
  <path d="M292 288L318 314" stroke="#26C485" stroke-width="28" stroke-linecap="round" stroke-linejoin="round"/>
  <path d="M134 146L378 366" stroke="url(#shine)" stroke-width="10" stroke-linecap="round" opacity="0.55"/>
  <defs>
    <linearGradient id="panel" x1="78" y1="76" x2="430" y2="440" gradientUnits="userSpaceOnUse">
      <stop stop-color="#FFB84D"/>
      <stop offset="0.46" stop-color="#F06543"/>
      <stop offset="1" stop-color="#2E86AB"/>
    </linearGradient>
    <linearGradient id="shine" x1="132" y1="145" x2="380" y2="368" gradientUnits="userSpaceOnUse">
      <stop stop-color="#FFFFFF" stop-opacity="0.9"/>
      <stop offset="1" stop-color="#FFFFFF" stop-opacity="0"/>
    </linearGradient>
  </defs>
</svg>
